<svg version="1.1" id="Layer_1" xmlns="http://www.w3.org/2000/svg" xmlns:xlink="http://www.w3.org/1999/xlink" x="0px" y="0px"
	 width="100%" viewBox="0 0 1024 896" enable-background="new 0 0 1024 896" xml:space="preserve">
<path fill="#000000" opacity="1.000000" stroke="none" 
	d="
M535.638367,721.907227 
	C511.554443,724.327271 488.284973,722.635620 465.485535,715.762268 
	C462.333801,714.812134 461.194641,715.953125 461.217926,719.085571 
	C461.281097,727.584961 461.278503,736.085693 461.193146,744.584839 
	C461.169250,746.964722 462.122955,748.705505 463.755280,750.289917 
	C470.111389,756.459534 472.573608,764.247375 472.928711,772.853943 
	C473.173340,778.782776 470.967712,781.263855 465.170959,781.279724 
	C440.837830,781.346436 416.504456,781.350037 392.171234,781.319397 
	C386.653595,781.312439 385.013794,779.652222 384.894714,774.181213 
	C384.650665,762.969604 388.367493,753.433289 397.752594,746.920532 
	C401.855560,744.073242 402.970856,740.803040 402.953552,736.042175 
	C402.889923,718.555603 402.010437,701.046204 403.620941,683.585693 
	C403.929565,680.239502 401.875488,678.324402 400.006256,676.269226 
	C386.425323,661.337280 376.946167,644.208679 371.496490,624.729736 
	C364.189606,598.612488 365.522003,572.692383 372.532684,546.822205 
	C374.214874,540.614685 373.864716,541.673767 368.224091,539.051392 
	C358.201630,534.392029 352.328491,538.522583 346.643616,546.142883 
	C342.978729,551.055542 338.402222,555.295227 334.165802,559.771729 
	C331.679169,562.399292 330.914856,565.152405 331.745422,568.859924 
	C335.315887,584.798462 332.900726,600.364441 327.733673,615.545898 
	C326.338654,619.644531 327.324799,621.923218 330.456390,624.434937 
	C339.268219,631.502441 345.945404,640.063416 347.502930,651.687317 
	C348.716431,660.743835 340.889008,669.924438 331.816589,670.068298 
	C327.277405,670.140320 323.758209,668.096558 321.837158,663.846619 
	C320.304718,660.456421 318.481934,657.303162 315.414795,655.085205 
	C313.146393,653.444824 311.026276,651.565796 307.762146,653.367859 
	C304.537262,655.148193 302.866150,657.288574 302.868744,661.215149 
	C302.872375,666.741150 305.364594,671.094666 308.080322,675.528320 
	C313.504303,684.383423 311.209473,691.816589 301.965179,696.454895 
	C297.741913,698.573853 293.926819,697.713257 290.045349,695.764587 
	C274.743530,688.082153 266.874969,671.511414 270.270752,653.182922 
	C271.100525,648.704163 270.468323,645.186707 268.494293,641.009766 
	C263.177185,629.759338 262.848694,617.391541 263.201233,605.254211 
	C263.548828,593.287170 265.090607,581.359192 268.808746,569.835510 
	C271.392090,561.828857 274.733887,554.248535 280.466248,547.963867 
	C282.014252,546.266663 282.745728,544.375244 283.182007,542.207520 
	C284.701080,534.659363 289.027985,529.205383 295.942627,525.937622 
	C299.220276,524.388611 301.670807,522.202454 303.753876,519.228638 
	C309.110107,511.581848 314.962036,504.292969 321.292389,497.433319 
	C323.814941,494.699768 325.077209,491.719818 325.565735,488.135437 
	C327.944763,470.679260 340.776337,456.531311 357.959412,453.047363 
	C364.655884,451.689636 370.335602,447.486816 377.002258,447.561279 
	C377.809326,445.394501 376.626953,444.449677 376.015076,443.332581 
	C370.345032,432.980774 371.987610,423.848694 381.014404,416.091156 
	C387.967407,410.115814 396.251526,406.638184 404.786285,403.673462 
	C407.894318,402.593842 411.137177,401.840546 414.228516,399.721771 
	C411.111603,396.402863 407.310852,393.751099 405.459015,390.108582 
	C400.868988,381.080139 394.807678,375.114960 384.704956,371.658875 
	C376.171082,368.739563 371.855255,360.314362 371.733582,350.841553 
	C371.568787,338.010559 371.758453,325.175415 371.703796,312.342468 
	C371.674408,305.445099 373.978851,299.570831 379.169830,295.031189 
	C381.786957,292.742432 382.733948,290.135681 382.715240,286.701355 
	C382.603546,266.202087 382.586182,245.701492 382.712891,225.202408 
	C382.735626,221.522751 381.660309,219.099228 378.565857,216.869339 
	C370.175385,210.823135 369.196991,200.045029 375.955750,192.333191 
	C382.605072,184.746185 393.746613,184.357132 400.786713,191.466064 
	C408.332672,199.085892 407.987701,209.727310 399.555969,216.364548 
	C396.193878,219.011093 394.913971,221.729187 394.966003,226.018219 
	C395.186340,244.181366 394.971710,262.349487 395.026154,280.515411 
	C395.032013,282.465820 393.971954,285.396851 396.965210,285.971680 
	C399.841583,286.524109 400.169464,283.586609 400.986511,281.706696 
	C417.548126,243.601471 448.526581,225.275879 487.859802,218.677200 
	C510.307434,214.911331 532.696655,215.641174 554.713562,221.671555 
	C580.662231,228.778824 603.118103,241.260757 618.299011,264.466217 
	C619.012573,265.556946 619.665344,266.773560 621.363098,267.329254 
	C624.729065,264.957153 626.430664,261.063202 628.822449,257.773682 
	C635.779480,248.205566 642.706116,238.611740 649.438965,228.885544 
	C652.912720,223.867416 654.174622,217.597137 658.754089,213.077316 
	C662.797668,209.086487 666.552673,205.138260 672.097473,202.947708 
	C677.378479,200.861404 681.182800,196.272873 685.641724,192.799515 
	C697.733704,183.380173 709.632019,173.711655 721.749023,164.325134 
	C727.968628,159.507080 730.755615,159.834396 736.424744,165.453766 
	C740.092224,169.088974 743.741455,172.765839 747.111450,176.672028 
	C751.586609,181.859222 751.455933,186.012848 746.236816,190.500778 
	C732.850830,202.011520 719.265564,213.291336 705.711548,224.605408 
	C701.993835,227.708771 698.527954,230.866287 695.952820,235.146622 
	C692.911133,240.202393 687.845886,243.473511 683.169800,246.922806 
	C680.297974,249.041183 677.921448,251.437653 675.900818,254.357574 
	C667.842773,266.001495 659.710571,277.594574 651.533997,289.155701 
	C649.589233,291.905548 649.011902,293.995728 651.824402,296.878174 
	C656.282593,301.447205 658.176880,307.322815 658.164917,313.765015 
	C658.144104,324.931580 658.216370,336.098511 658.156799,347.264771 
	C658.079834,361.670746 650.828247,371.336334 636.848267,374.823517 
	C632.554810,375.894531 630.191895,377.854889 628.996582,381.970245 
	C627.966919,385.515259 625.972534,388.685638 623.488953,391.399292 
	C621.149719,393.955261 618.466003,396.195892 615.549866,398.935883 
	C618.643066,401.236908 621.777954,401.746033 624.646729,402.751495 
	C633.810242,405.963196 642.720642,409.610901 650.149597,416.119049 
	C658.719666,423.626831 660.363708,431.721954 655.407104,442.050751 
	C654.700623,443.522980 653.628906,444.898071 654.128174,447.292175 
	C659.189697,448.876892 664.432922,450.904541 669.856140,452.146515 
	C688.792419,456.483124 701.574768,466.957886 705.408875,486.725281 
	C705.907471,489.295807 707.545166,491.188324 709.084656,493.159882 
	C714.005920,499.462006 718.988525,505.718842 723.785461,512.114624 
	C728.271179,518.095520 732.348450,524.270203 739.277405,528.042358 
	C743.737732,530.470581 746.924683,534.815369 748.078613,539.779480 
	C749.189209,544.557739 751.859863,548.042236 754.651306,551.799744 
	C761.895569,561.550903 764.652527,573.107971 766.761963,584.795166 
	C769.902222,602.193420 771.211792,619.974854 764.986206,636.600952 
	C761.568359,645.728821 762.031860,654.156311 762.242981,663.098328 
	C762.583069,677.501465 755.789551,687.913940 743.785217,695.197754 
	C736.773071,699.452454 730.864258,698.634888 725.765076,693.067810 
	C720.599243,687.428040 720.122253,681.510925 724.586121,674.922058 
	C727.932007,669.983582 730.278748,664.927002 730.001709,658.686462 
	C729.823242,654.665955 727.005615,654.020325 724.450500,652.561584 
	C721.923523,651.118835 719.798157,651.254944 717.626526,653.184143 
	C715.117493,655.412964 712.718872,657.692017 711.422546,660.887451 
	C709.596924,665.387329 707.210449,669.568237 701.719360,669.738708 
	C695.855713,669.920715 691.046875,667.240662 687.658691,662.490051 
	C683.240723,656.295593 683.796570,649.643127 686.538330,642.971680 
	C689.908386,634.771667 695.086731,627.882996 702.220459,622.642700 
	C704.979431,620.615906 705.524292,618.851135 704.303284,615.568787 
	C698.506409,599.985107 696.286438,583.981140 700.130188,567.554932 
	C700.772949,564.807861 699.734924,563.031433 698.172974,561.272095 
	C691.646851,553.921082 685.060181,546.623901 678.520142,539.285217 
	C677.089600,537.679932 675.440613,536.749756 673.240112,537.164551 
	C668.824402,537.996948 664.405823,538.816772 660.001099,539.704224 
	C656.933777,540.322205 657.141968,542.388672 657.881470,544.698792 
	C663.276550,561.551575 665.032593,578.837341 664.239807,596.468079 
	C662.857422,627.207214 651.380127,653.666504 630.607422,676.177734 
	C628.327148,678.648804 626.703735,680.960144 627.246948,684.519897 
	C629.899231,701.899658 629.199768,719.415955 629.061584,736.894226 
	C629.027039,741.265991 630.061401,744.183838 633.933105,746.829346 
	C643.536499,753.391174 646.971680,763.305786 647.114136,774.545532 
	C647.168762,778.852905 645.333008,781.393372 640.531006,781.378357 
	C615.531433,781.299988 590.531433,781.313782 565.531738,781.356445 
	C561.115723,781.363953 559.199829,779.100098 558.933716,774.950867 
	C558.361084,766.021606 560.816406,758.051392 566.998291,751.553040 
	C569.880676,748.523132 570.944885,745.323364 570.837585,741.224670 
	C570.612061,732.604858 570.769104,723.975037 570.769104,714.430542 
	C558.871399,717.821960 547.659485,720.758057 535.638367,721.907227 
M381.199799,574.576721 
	C380.009033,583.867554 379.960785,593.122742 381.026154,602.470032 
	C384.841797,635.948303 400.296875,662.685669 427.279266,682.671997 
	C448.068787,698.071167 472.027313,704.950623 497.393066,707.846069 
	C514.595947,709.809753 531.614136,708.794983 548.578735,705.557190 
	C552.548523,704.799500 554.070984,703.078186 554.033020,698.874146 
	C553.825317,675.877380 553.845032,652.877808 553.937927,629.879883 
	C553.952637,626.236816 552.992981,623.923584 549.747375,621.717041 
	C538.955811,614.380432 538.659790,599.259094 548.816406,592.095703 
	C556.808960,586.458618 567.430481,588.015442 573.380554,595.696289 
	C579.456604,603.539612 578.242859,614.827332 570.402222,621.241882 
	C567.863953,623.318542 565.898804,625.064697 565.941406,628.882019 
	C566.188599,651.044922 566.121582,673.211243 566.199219,695.376282 
	C566.204773,696.965515 565.666809,698.730591 567.484741,700.411865 
	C575.029480,698.449402 582.204895,695.094666 589.096863,691.098022 
	C590.925659,690.037537 590.786560,687.980408 590.793030,686.139404 
	C590.810669,681.139832 590.564209,676.124451 590.886230,671.145325 
	C591.147644,667.102783 589.815186,664.468323 586.660034,661.799194 
	C576.753052,653.418152 577.547791,640.601501 588.058838,632.792297 
	C589.389832,631.803467 591.132935,630.981506 591.863708,629.636047 
	C596.350952,621.374146 604.238220,616.203918 610.064758,609.187134 
	C612.754150,605.948364 616.086914,604.838013 620.199341,604.916077 
	C628.362549,605.071106 636.531006,604.992554 644.696716,604.935242 
	C646.447632,604.922974 648.713623,605.493347 649.525574,603.303162 
	C650.687073,600.170410 651.731873,596.653992 650.360229,593.558411 
	C649.098816,590.711731 645.777100,591.535706 643.181946,591.550781 
	C625.190613,591.655579 607.199036,591.758240 589.208557,591.954346 
	C585.999512,591.989380 583.411133,591.049927 581.144043,588.759949 
	C568.247925,575.733521 555.315430,562.742981 542.358887,549.776550 
	C539.496582,546.912048 537.770020,543.574829 538.076477,539.514038 
	C538.339966,536.022461 536.765076,534.216248 533.853333,532.453247 
	C523.663818,526.283691 521.546509,512.059692 530.895630,504.911530 
	C537.544434,499.828064 538.282715,494.322540 537.845581,487.368561 
	C537.689148,484.879333 537.723145,482.363129 537.881409,479.872650 
	C538.116089,476.180664 536.533630,474.884552 532.859863,474.993225 
	C524.866638,475.229736 516.863403,475.176514 508.864380,475.164001 
	C478.459320,475.116516 448.341156,472.402740 418.717010,465.261932 
	C414.103851,464.149963 409.549652,462.793243 404.160522,461.330475 
	C404.922974,467.216980 406.811981,472.029297 407.292084,477.121124 
	C408.829559,493.428192 403.140381,507.916534 396.544250,522.234619 
	C388.983643,538.646362 382.850128,555.484497 381.199799,574.576721 
M615.417969,379.846985 
	C617.890564,376.012634 619.676941,371.907227 620.001892,367.308594 
	C621.399902,347.522034 621.921814,327.718964 619.861694,307.955933 
	C616.671265,277.349182 600.587402,255.845673 573.151428,242.406921 
	C569.809326,240.769867 568.279419,241.830673 566.986816,244.772018 
	C564.904114,249.510925 562.412476,254.032745 559.252197,258.149963 
	C555.237183,263.380646 550.399292,267.157532 543.372803,267.143402 
	C523.875854,267.104248 504.378815,267.108246 484.881836,267.093170 
	C479.353424,267.088867 474.893463,264.903473 471.460236,260.565521 
	C467.610046,255.700684 464.480652,250.368484 462.056671,244.707153 
	C460.608612,241.325104 458.863007,240.872528 455.935577,242.522995 
	C452.455322,244.485184 448.818115,246.192856 445.453735,248.332825 
	C427.221436,259.929626 414.721497,275.649811 410.661682,297.330566 
	C406.794037,317.985016 408.205109,338.805145 408.626160,359.606110 
	C408.964783,376.335236 417.183167,387.745453 432.194519,394.073334 
	C460.759613,406.114655 490.948364,409.965607 521.617859,409.395538 
	C541.092590,409.033539 560.411011,405.923340 579.261780,400.733795 
	C592.833679,396.997467 606.180969,392.643982 615.417969,379.846985 
M518.500000,461.851929 
	C545.390930,462.241455 572.024780,459.463867 598.404236,454.571411 
	C611.823120,452.082733 625.098145,448.503723 636.925903,441.264191 
	C647.262024,434.937653 647.162903,428.858215 636.711975,422.906342 
	C627.819519,417.842041 618.031982,414.970825 608.203796,412.422180 
	C603.000671,411.072906 597.843079,408.435120 592.182129,410.386108 
	C581.768860,413.974884 571.061157,416.378418 560.247192,418.362366 
	C558.411194,418.699249 556.352478,419.081329 556.320801,421.434784 
	C556.269775,425.219452 554.853760,429.519012 557.017029,432.650116 
	C558.920105,435.404602 562.604553,432.751251 565.497864,432.904205 
	C566.325317,432.947937 567.168884,432.896942 567.991516,432.787659 
	C579.026794,431.321564 590.190674,430.664032 600.963318,427.540649 
	C603.919617,426.683502 606.706787,425.727020 607.379333,422.109650 
	C607.758423,420.070801 609.401306,419.643402 611.198303,419.688293 
	C615.308411,419.791016 618.832825,421.104523 620.469788,425.182770 
	C622.109131,429.266846 619.440186,431.874359 616.619690,434.040833 
	C611.191833,438.210022 604.658630,439.744507 598.143433,441.185303 
	C579.869690,445.226440 561.286865,446.386993 542.655334,447.377960 
	C507.640839,449.240326 472.790131,448.117126 438.183594,442.263275 
	C430.343201,440.937042 422.326385,439.591492 415.533325,434.968262 
	C412.013885,432.572998 408.892578,429.556702 410.512726,424.621124 
	C411.768646,420.795197 418.105225,417.423767 422.419861,417.970337 
	C424.267578,418.204437 426.107117,418.950806 425.374786,421.017365 
	C423.522247,426.244843 427.203186,426.911499 430.590240,427.902710 
	C440.393951,430.771667 450.572449,431.319977 460.624268,432.602844 
	C470.775391,433.898376 470.838379,433.572540 470.944580,423.396057 
	C470.986298,419.401062 469.482330,417.889343 465.676086,417.143158 
	C458.171875,415.671997 450.774261,413.658447 443.330292,411.878571 
	C439.621796,410.991882 435.917603,409.392853 432.061981,410.333740 
	C419.455841,413.410034 406.742523,416.238708 395.232056,422.600189 
	C383.833069,428.899994 383.622986,435.550476 394.861084,442.059723 
	C404.004425,447.355591 414.072784,450.486969 424.319153,452.777161 
	C454.992615,459.633118 486.114197,462.167450 518.500000,461.851929 
M636.490845,580.037537 
	C637.490967,580.033997 638.491333,580.042297 639.491211,580.025146 
	C653.543823,579.784302 650.989197,581.417358 649.362427,568.492676 
	C647.545288,554.055481 648.432434,556.687195 635.891602,556.401123 
	C634.891968,556.378357 633.882751,556.471191 632.893372,556.365906 
	C629.414734,555.995911 627.050232,557.338989 624.870239,560.189331 
	C617.287292,570.104004 604.668396,570.950989 596.355835,561.631653 
	C588.810059,553.171997 581.028564,544.953186 573.249268,536.722046 
	C570.711792,534.037109 569.702698,530.937988 569.736816,527.191162 
	C569.884033,511.025879 569.848206,494.858734 569.817810,478.692383 
	C569.814209,476.786896 570.511047,474.683716 568.509644,472.670685 
	C563.323364,473.144165 557.877502,473.697845 552.421265,474.115570 
	C549.686462,474.324951 549.274170,476.021851 549.290161,478.247009 
	C549.330933,483.913361 549.458069,489.584961 549.265747,495.244812 
	C549.158081,498.412933 550.237671,500.342438 552.903259,502.213165 
	C563.690186,509.783386 563.970154,523.714539 553.738647,531.959290 
	C548.957764,535.811890 548.697693,539.000793 553.015503,543.489502 
	C563.874207,554.778259 574.847168,565.957642 585.645874,577.303162 
	C588.036560,579.814819 590.583130,580.986145 594.021729,580.672729 
	C607.826782,579.414490 621.671692,580.422913 636.490845,580.037537 
M625.169800,496.009277 
	C622.350647,484.052917 624.776428,472.476440 628.652100,460.445038 
	C623.045837,462.148590 618.518982,464.042053 613.807922,464.820740 
	C608.283997,465.733795 607.035034,468.511230 607.174500,473.724213 
	C607.512695,486.370514 607.195984,499.033478 607.213806,511.689667 
	C607.219421,515.657043 605.721619,518.181641 601.456970,518.152527 
	C597.123901,518.122925 595.811584,515.364502 595.811340,511.523987 
	C595.810669,499.200836 595.798157,486.877655 595.757141,474.554596 
	C595.751709,472.931122 596.421326,470.681580 594.833130,469.895081 
	C591.438904,468.214325 588.028809,470.208069 584.659180,470.793213 
	C582.109497,471.235992 582.074158,473.473816 582.048035,475.532745 
	C581.870300,489.513123 582.218994,503.528137 581.308105,517.460693 
	C580.768005,525.722595 582.927673,531.781738 589.191895,537.099548 
	C592.466492,539.879456 594.202881,541.227966 598.036194,537.611633 
	C605.746399,530.337891 617.808167,531.513916 624.207703,539.739319 
	C626.384155,542.536743 627.813538,545.696472 632.249573,544.893738 
	C635.561523,544.294189 639.148926,545.739319 642.790283,543.621521 
	C641.508057,540.056885 640.363831,536.616333 639.041321,533.245789 
	C634.306213,521.177673 628.300903,509.586700 625.169800,496.009277 
M755.807800,595.597839 
	C754.772156,584.347900 752.640076,573.409912 746.756653,562.279846 
	C737.387817,574.179810 725.987000,577.970398 712.728149,573.619080 
	C710.915894,575.498230 711.314941,577.257141 711.200439,578.869141 
	C710.568420,587.766174 711.868408,596.407715 714.259521,604.989807 
	C715.513977,609.492188 717.707886,612.036072 722.498291,612.917603 
	C726.026123,613.566711 729.404480,615.283081 732.712769,616.818542 
	C740.284729,620.332764 746.912048,625.293579 753.024414,631.050598 
	C756.400085,624.976929 756.925903,618.085754 755.807800,595.597839 
M308.465057,613.787354 
	C314.347321,613.739075 316.918060,610.227234 317.984406,604.921631 
	C319.362152,598.066650 320.821594,591.227905 320.813812,584.194946 
	C320.809845,580.612122 321.106079,576.928284 318.789001,573.520752 
	C305.505219,577.741150 294.864655,573.571594 286.464111,563.340210 
	C276.476746,572.369751 273.268555,619.117615 278.858276,630.350891 
	C287.493164,623.070068 296.919830,617.286560 308.465057,613.787354 
M487.011810,254.789352 
	C503.977264,254.794250 520.950928,254.495285 537.904053,254.954514 
	C544.629639,255.136703 548.504578,252.145798 551.484253,246.893188 
	C552.549622,245.015106 553.484924,243.059814 554.414795,241.108871 
	C556.755188,236.198563 556.413391,235.287888 550.984558,233.928574 
	C528.187134,228.220352 505.272034,228.091202 482.304565,232.822601 
	C470.900452,235.171890 470.784454,235.399673 476.471222,245.661255 
	C478.688446,249.662170 480.569092,254.235245 487.011810,254.789352 
M635.898132,646.427307 
	C640.853088,637.412354 645.256042,628.183838 647.478821,617.515930 
	C641.590759,616.493958 636.051941,617.778076 630.734802,616.920776 
	C621.367859,615.410339 614.933350,619.364868 609.414062,626.417725 
	C606.873901,629.663696 605.964722,631.550964 609.527771,634.973755 
	C618.722290,643.806580 617.145569,656.950928 606.568176,664.048340 
	C605.352295,664.864136 603.519104,665.286499 603.405029,666.977417 
	C603.087524,671.682861 602.518982,676.432007 603.845520,681.977661 
	C617.029175,671.982117 627.505676,660.650635 635.898132,646.427307 
M363.801788,480.510590 
	C363.801788,475.748230 363.801788,470.985840 363.801788,466.376617 
	C360.021179,465.400146 357.359894,466.451019 354.829102,467.656036 
	C343.465057,473.066925 337.693634,481.958771 338.157074,494.715240 
	C338.632629,507.805084 344.716705,517.130188 356.705658,522.460266 
	C362.105408,524.860901 363.620972,523.877441 363.671692,517.976929 
	C363.776245,505.820831 363.764923,493.663757 363.801788,480.510590 
M692.599304,486.056732 
	C689.789490,476.375031 683.378601,470.095215 674.054565,466.703278 
	C668.621094,464.726593 667.992188,465.181183 667.976074,470.916992 
	C667.933289,486.210815 668.008179,501.504974 667.977966,516.798889 
	C667.963257,524.235474 669.038025,525.005554 676.008972,522.246521 
	C688.336426,517.367310 695.695618,501.811646 692.599304,486.056732 
M618.493652,768.745911 
	C623.393616,768.527161 628.352600,769.234131 633.665344,768.216187 
	C632.517151,762.241760 629.184570,758.432495 624.497681,756.044373 
	C610.347717,748.834534 595.942749,749.029541 581.835327,755.997986 
	C577.140198,758.317139 573.313782,762.127197 572.622986,768.750488 
	C587.965820,768.750488 602.731079,768.750488 618.493652,768.745911 
M446.958313,768.600342 
	C450.857513,768.142212 454.886139,768.802246 458.810974,767.492126 
	C458.409607,763.203247 455.694824,760.682922 452.911499,758.333984 
	C441.277618,748.515747 415.190338,748.615723 403.625519,758.528381 
	C400.840698,760.915344 398.584686,763.738159 398.539368,768.611084 
	C414.574127,768.611084 430.318787,768.611084 446.958313,768.600342 
M643.939087,508.575775 
	C646.988403,514.665955 648.822571,521.377136 652.816956,527.586304 
	C654.762512,524.599731 654.597473,522.081543 654.614258,519.636963 
	C654.662292,512.656250 654.624023,505.674957 654.627686,498.693878 
	C654.633606,487.391388 654.671875,476.088837 654.634521,464.786499 
	C654.626648,462.408630 654.394043,459.940979 651.322754,459.466034 
	C648.582031,459.042175 645.947876,459.167175 644.413818,462.058899 
	C643.635925,463.525146 642.812012,464.973206 642.135437,466.486023 
	C635.858215,480.520782 637.261902,494.292938 643.939087,508.575775 
M382.425598,460.182312 
	C378.452759,459.748108 377.208069,461.711670 377.231903,465.471069 
	C377.349915,484.097900 377.309296,502.725739 377.349579,521.353149 
	C377.353302,523.081116 377.467163,524.828491 378.846252,526.959900 
	C384.296906,515.395874 389.733276,504.559540 392.620789,492.711426 
	C395.046631,482.757721 393.189789,473.262451 388.912170,464.113617 
	C387.760193,461.649841 386.232971,459.913788 382.425598,460.182312 
M524.178772,434.670441 
	C528.830261,434.395630 533.479797,433.940186 538.133728,433.889221 
	C544.765015,433.816650 542.380249,428.933014 542.744080,425.574799 
	C543.212036,421.255524 540.343811,421.782623 537.538391,422.104858 
	C521.428955,423.955170 505.337463,424.106750 489.279236,421.493378 
	C486.598572,421.057098 483.815002,421.107300 484.351959,424.906006 
	C484.808899,428.138702 481.746094,433.303162 488.297119,433.762421 
	C499.925476,434.577667 511.567047,435.141663 524.178772,434.670441 
M727.993530,189.468460 
	C729.437927,188.350540 730.943909,187.302307 732.310242,186.095947 
	C733.806213,184.775024 736.726685,183.478348 734.106567,181.112915 
	C731.742676,178.978867 729.985901,173.861435 725.355652,177.475418 
	C711.744446,188.099182 698.258789,198.883820 684.737793,209.622879 
	C683.704590,210.443527 682.682739,211.290298 683.117432,212.937607 
	C684.543762,218.343185 691.056274,220.476944 695.408691,216.842346 
	C706.115601,207.901184 716.775879,198.904236 727.993530,189.468460 
M660.944031,236.888184 
	C659.581360,236.245575 658.657288,237.014847 657.976624,237.990723 
	C648.458679,251.636383 638.911316,265.262299 629.522705,278.996674 
	C627.389526,282.117340 628.438782,284.621582 632.048767,286.045166 
	C635.676636,287.475861 638.310730,286.689697 640.592896,283.371246 
	C647.949646,272.673828 655.483398,262.097870 662.971497,251.491013 
	C668.375671,243.835953 668.391663,243.847260 660.944031,236.888184 
M394.773407,334.500031 
	C394.630066,323.048248 394.824310,311.605133 396.234375,300.122803 
	C389.348999,300.790375 384.632507,305.226898 384.464417,311.875702 
	C384.136017,324.865448 384.153015,337.871857 384.396057,350.864471 
	C384.502014,356.528900 388.333069,360.221680 394.774017,361.354980 
	C394.774017,352.649078 394.774017,344.074585 394.773407,334.500031 
M645.009949,341.476562 
	C644.983459,331.499695 645.111450,321.519165 644.875305,311.547272 
	C644.722412,305.091614 639.949768,300.921417 633.116577,301.252899 
	C635.193298,321.137207 633.625671,341.125519 634.448303,361.170074 
	C641.339600,359.934448 644.356445,356.850159 644.814819,350.939453 
	C645.032959,348.126251 644.956970,345.290222 645.009949,341.476562 
M732.594421,538.847229 
	C731.464905,538.149841 730.410339,537.257629 729.192871,536.788574 
	C723.794434,534.708984 718.584473,535.291870 714.149963,538.991516 
	C710.337463,542.172241 708.637268,546.459656 709.776550,551.516968 
	C711.160950,557.662354 715.629211,561.741455 721.806152,562.609924 
	C726.796936,563.311584 732.116028,560.627380 734.886292,556.008972 
	C738.078186,550.687744 737.472595,544.977966 732.594421,538.847229 
M316.865204,538.489868 
	C316.016113,537.971680 315.228912,537.255005 314.307800,536.967896 
	C308.810455,535.254211 303.385071,535.075928 298.836090,539.212524 
	C294.862274,542.826050 294.237122,547.672241 295.608337,552.558411 
	C297.183228,558.170227 301.128571,561.490417 306.994629,562.344604 
	C312.028900,563.077637 317.980957,560.032898 320.402008,555.485718 
	C323.125519,550.370361 322.059204,544.426819 316.865204,538.489868 
M592.609619,713.844788 
	C598.914734,713.836792 605.219910,713.849792 611.524780,713.806519 
	C613.148071,713.795349 615.470703,714.039185 615.599304,711.942383 
	C615.995117,705.488464 616.226013,698.990173 615.242004,691.591309 
	C612.708496,693.249207 611.188843,694.189758 609.725281,695.210815 
	C603.458740,699.582947 596.915222,703.476074 590.157349,707.050903 
	C587.933594,708.227234 583.536987,708.198120 584.625366,712.091125 
	C585.532715,715.336426 589.235657,713.332275 592.609619,713.844788 
M415.330566,699.018433 
	C415.315735,702.504517 415.426605,705.997070 415.249481,709.474915 
	C415.083466,712.734497 416.497345,713.904419 419.654999,713.856750 
	C427.289825,713.741516 434.928436,713.875366 442.562988,713.750793 
	C444.396118,713.720886 447.160187,714.812134 447.829529,712.375366 
	C448.590698,709.604187 445.704956,709.051086 443.782288,708.262756 
	C438.083435,705.926147 432.735352,702.940186 427.396973,699.890686 
	C423.729919,697.795959 420.803650,694.438660 416.651886,693.234924 
	C415.244324,694.826843 415.436584,696.532532 415.330566,699.018433 
M415.609375,737.073303 
	C416.695557,739.342529 418.599579,738.629822 420.376038,738.380005 
	C427.684723,737.352356 434.926178,737.652283 442.119415,739.357544 
	C443.809113,739.758118 445.518005,740.820740 447.955475,739.345276 
	C447.955475,737.380676 447.765167,735.072937 447.996460,732.808289 
	C448.431824,728.545471 446.863647,726.732605 442.412903,726.935364 
	C436.614624,727.199463 430.793579,727.050781 424.984131,726.962097 
	C413.914551,726.793213 415.628540,727.187988 415.609375,737.073303 
M695.882751,539.219788 
	C698.446472,541.373108 698.920410,538.846069 699.713318,537.415283 
	C701.921631,533.430359 704.730347,530.049927 708.631409,527.594299 
	C710.838501,526.204956 713.587891,525.679199 715.719543,523.059326 
	C712.694824,517.743225 708.575073,513.225220 704.243896,507.873871 
	C701.143372,514.633728 698.954468,520.723450 694.294250,525.428528 
	C688.274902,531.505859 688.359619,531.590271 694.346436,537.732727 
	C694.693420,538.088745 695.051025,538.434387 695.882751,539.219788 
M611.798462,738.007202 
	C617.158813,739.241455 615.852783,735.249329 615.990662,732.543457 
	C616.129761,729.813416 616.962158,726.723145 612.183228,726.932190 
	C605.538330,727.222961 598.872498,727.059998 592.215698,727.047424 
	C583.705383,727.031372 583.584290,727.237793 583.997314,735.680847 
	C584.158020,738.965393 585.216003,740.239441 588.615295,739.307068 
	C595.940430,737.297974 603.437439,737.511719 611.798462,738.007202 
M326.935455,511.070129 
	C323.427612,513.729065 320.952637,517.275818 318.544647,520.873535 
	C317.664673,522.188232 316.929077,523.672058 318.780945,524.716125 
	C325.325958,528.405762 330.339264,533.526062 333.007355,540.720825 
	C343.196503,533.849304 343.536316,531.761475 336.409149,523.968994 
	C335.401764,522.867615 334.577942,521.599670 333.586945,520.481628 
	C331.055878,517.625977 330.707031,513.393311 326.935455,511.070129 
M308.668060,627.387756 
	C301.103363,630.189880 294.084015,633.827148 288.266937,639.823914 
	C299.014771,647.611694 312.602753,640.652222 313.997162,627.274841 
	C313.447205,627.055847 312.847687,626.613281 312.260529,626.629089 
	C311.291138,626.655334 310.329712,626.977417 308.668060,627.387756 
M742.308777,658.967163 
	C744.216064,668.378845 738.333069,675.898560 735.491943,684.266846 
	C737.134888,684.239258 738.094299,684.000854 738.874207,683.488953 
	C748.199402,677.368286 752.679565,665.291443 749.762756,654.583801 
	C749.147217,652.324219 747.993896,652.047974 746.118652,652.918640 
	C743.893311,653.951721 742.078796,655.275208 742.308777,658.967163 
M728.343872,641.373535 
	C733.060303,643.241333 737.617432,643.949463 741.948547,639.381348 
	C736.056641,632.405396 728.193176,628.938721 720.253296,625.617798 
	C719.288757,625.214355 718.231873,625.605408 717.661865,626.589050 
	C716.894897,627.912537 717.319092,629.232605 718.086731,630.352966 
	C720.809570,634.326904 723.282593,638.542786 728.343872,641.373535 
M295.634491,679.804871 
	C291.570831,673.703857 289.170868,667.146057 289.926880,659.663574 
	C290.382050,655.158752 287.794037,653.457764 283.792999,653.110474 
	C278.058228,665.719482 286.836914,682.030212 296.144653,684.076538 
	C297.343933,682.796997 296.444580,681.632690 295.634491,679.804871 
M678.700073,225.753571 
	C677.092773,224.090408 675.472595,222.439392 673.881897,220.760468 
	C672.472412,219.272781 671.177490,217.674820 668.989075,219.790451 
	C667.134277,221.583511 666.009216,223.266693 668.072083,225.711060 
	C670.636841,228.750275 673.292908,231.665558 676.416077,234.152130 
	C678.881470,236.114990 680.337280,234.212341 681.920898,232.838120 
	C683.602966,231.378448 683.145020,230.008728 681.647827,228.692749 
	C680.781006,227.930817 679.997314,227.074249 678.700073,225.753571 
M563.654907,611.246948 
	C566.559021,607.015686 566.370850,603.680786 563.100464,601.419739 
	C560.089172,599.337646 555.901489,600.186218 554.078430,603.373779 
	C552.647034,605.876709 552.604919,608.535156 554.558594,610.735840 
	C556.987549,613.471924 559.971313,613.495422 563.654907,611.246948 
M600.254822,642.214111 
	C597.022461,640.512878 594.468323,641.625549 592.442261,644.273010 
	C590.741272,646.495667 590.794800,648.912109 592.375488,651.193542 
	C594.081604,653.656067 596.554688,654.324524 599.381470,653.751343 
	C601.492676,653.323303 603.007202,651.999451 603.588074,649.955139 
	C604.447144,646.932190 603.539856,644.408875 600.254822,642.214111 
M538.608337,513.143127 
	C536.344116,517.680481 536.891846,521.226196 540.398987,522.922363 
	C543.990173,524.659119 546.811401,523.289429 548.786011,520.057617 
	C550.404175,517.409058 549.817932,514.883301 547.661133,512.891541 
	C545.009521,510.442841 542.073120,510.323456 538.608337,513.143127 
M615.730164,550.489075 
	C615.221375,546.633728 613.094055,544.270813 609.145386,544.504456 
	C606.095154,544.684937 603.706970,546.438660 603.411743,549.759460 
	C603.124512,552.990723 604.911316,555.331299 607.901123,556.172852 
	C612.076965,557.348450 614.451111,555.027588 615.730164,550.489075 
M708.908508,639.583313 
	C707.336243,636.887634 705.532776,636.663086 703.474426,639.068665 
	C700.864563,642.118652 698.754883,645.482483 697.651489,649.350647 
	C697.074036,651.375366 696.686462,653.588135 699.251892,655.224243 
	C702.593567,651.120178 705.913025,647.077637 709.185120,642.997131 
	C709.871643,642.140991 709.705627,641.132507 708.908508,639.583313 
M323.534576,639.038574 
	C323.132141,640.536743 321.076599,641.842102 322.486206,643.530701 
	C325.922882,647.647461 329.553009,651.602844 333.217255,655.749939 
	C335.887360,650.580811 330.191742,638.619263 325.065582,637.710999 
	C324.731201,637.651672 324.284271,638.227417 323.534576,639.038574 
M383.814087,201.374786 
	C382.463379,205.444702 384.158264,207.926910 388.101715,208.708618 
	C390.814789,209.246414 393.016998,207.913345 394.146912,205.328033 
	C395.260468,202.780136 394.232086,200.664902 392.091125,199.293594 
	C389.140930,197.403976 386.396606,197.871414 383.814087,201.374786 
z"/>
<path fill="#000000" opacity="1.000000" stroke="none" 
	d="
M778.481506,136.660278 
	C784.308228,140.703522 784.586609,143.438370 779.541016,147.630051 
	C774.045715,152.195328 768.477783,156.703888 762.169617,160.154510 
	C759.856018,161.420074 757.657104,161.310440 755.925110,159.119354 
	C754.258362,157.010895 754.109802,154.458694 755.977844,152.731339 
	C762.303589,146.881638 768.939270,141.373688 776.178528,136.657074 
	C776.649109,136.350510 777.472839,136.586060 778.481506,136.660278 
z"/>
<path fill="#000000" opacity="1.000000" stroke="none" 
	d="
M747.757324,149.825699 
	C741.714233,151.320450 739.288940,149.649536 739.886475,143.959167 
	C740.577820,137.374527 741.876587,130.839233 743.205017,124.342506 
	C743.793335,121.465218 745.959717,119.701294 749.049683,120.026543 
	C751.788452,120.314827 754.269287,122.149757 753.940979,124.797096 
	C752.893066,133.247589 752.707581,141.979797 747.757324,149.825699 
z"/>
<path fill="#000000" opacity="1.000000" stroke="none" 
	d="
M770.362793,167.928040 
	C775.653503,167.912140 780.487854,167.803787 785.314514,167.949890 
	C788.655518,168.051025 791.245056,169.554291 791.378906,173.255005 
	C791.515930,177.043137 788.855896,178.635788 785.591492,178.804749 
	C779.942078,179.097137 774.272095,179.046646 768.610840,179.038040 
	C765.055298,179.032623 762.173767,177.634323 762.024536,173.727264 
	C761.883362,170.028519 764.709412,168.697769 767.915649,168.142410 
	C768.570007,168.029083 769.240295,168.007843 770.362793,167.928040 
z"/>
<path fill="#000000" opacity="1.000000" stroke="none" 
	d="
M727.963745,141.234161 
	C728.460205,143.062622 728.965454,144.482483 729.167297,145.944229 
	C729.526367,148.545135 728.469727,150.498535 725.993896,151.507843 
	C723.393982,152.567719 721.184448,151.507843 720.007935,149.355865 
	C716.814575,143.514832 714.879272,137.136978 713.309143,130.708450 
	C712.622192,127.895920 714.711914,126.041931 717.294434,125.209000 
	C720.172302,124.280792 722.371216,125.798889 723.398438,128.201569 
	C725.150391,132.299225 726.384338,136.618332 727.963745,141.234161 
z"/>
<path fill="#000000" opacity="1.000000" stroke="none" 
	d="
M410.039978,599.709229 
	C403.983795,574.027649 406.924072,549.061279 412.629883,524.204407 
	C413.071594,522.280151 413.767822,520.370972 414.636322,518.597107 
	C416.420898,514.952087 419.742188,513.522827 422.877106,515.915894 
	C446.067505,533.618591 474.330597,543.329285 496.305115,562.973267 
	C517.786926,582.176819 524.971680,606.202942 521.626221,634.120300 
	C520.971924,639.580444 520.169312,645.003601 518.605652,650.288879 
	C517.587646,653.729980 518.407654,656.258911 521.587952,658.374207 
	C525.765381,661.152649 530.192383,663.419922 534.574585,665.805176 
	C537.503052,667.399048 540.233093,669.475037 538.223022,673.269165 
	C536.351868,676.801086 533.254517,677.391235 529.719421,675.457520 
	C525.050354,672.903503 520.151367,670.696350 515.751953,667.743164 
	C511.396759,664.819702 507.265778,664.606995 502.163177,665.485596 
	C474.669891,670.219910 450.594269,663.214722 431.451660,642.515381 
	C420.394043,630.558594 414.043335,615.857361 410.039978,599.709229 
M444.672302,637.836731 
	C458.971161,649.554626 475.026794,655.570496 494.828430,653.537476 
	C490.013855,647.890747 486.583618,642.954224 479.029846,642.794189 
	C471.923035,642.643677 464.826202,641.206909 457.764282,640.088013 
	C454.071472,639.502930 452.207031,636.933472 452.871216,633.232849 
	C453.556488,629.414917 456.453278,628.948730 459.784943,629.440125 
	C464.155731,630.084839 468.464478,631.472473 473.474487,630.816895 
	C469.282043,624.756470 465.740723,619.126831 457.385986,618.667603 
	C451.308929,618.333557 445.293091,616.461060 439.309631,615.025696 
	C436.228973,614.286743 434.298553,612.101990 434.914398,608.759644 
	C435.540619,605.361206 438.160034,604.271179 441.314301,604.637756 
	C443.784912,604.924744 446.213837,605.569519 448.661865,606.052429 
	C450.844238,606.482971 453.058044,607.464966 455.603027,605.762329 
	C451.964966,599.052734 448.919769,592.388306 440.143860,591.599548 
	C436.310181,591.255005 432.706757,589.750305 429.231354,588.140015 
	C426.310547,586.786682 424.926056,584.325012 426.015045,581.170227 
	C427.041229,578.197205 429.505615,577.363098 432.485107,577.905579 
	C434.389191,578.252197 436.279388,579.402161 438.449463,577.847168 
	C439.010040,575.671448 437.642242,573.860840 436.802307,571.931396 
	C435.142456,568.118530 433.259613,564.385132 431.880249,560.473816 
	C430.913330,557.732056 431.662170,555.191467 434.601624,553.768677 
	C437.558258,552.337646 439.831055,553.439148 441.522980,555.849365 
	C442.660248,557.469482 443.464172,559.330811 444.355896,561.114868 
	C447.779907,567.965149 451.149475,574.842834 454.608856,581.675171 
	C455.454834,583.346008 456.122375,585.323303 458.763641,585.898132 
	C459.669189,581.104736 460.572937,576.566833 461.373047,572.010742 
	C462.063354,568.079895 463.837555,565.095825 468.288269,566.101318 
	C472.496002,567.052002 473.304199,570.429077 472.653687,574.347656 
	C471.536652,581.076233 470.500397,587.818237 469.438354,594.555847 
	C468.092438,603.094116 474.096405,615.252258 482.351807,620.189148 
	C484.200867,613.496155 484.216400,606.667603 485.253387,600.004089 
	C486.023651,595.054077 488.623047,592.744080 492.268677,593.445679 
	C495.868683,594.138611 497.466248,597.274048 496.792755,602.114014 
	C495.485962,611.505188 494.234711,620.904175 492.941559,630.297302 
	C492.737427,631.779968 492.188751,633.359009 493.294708,634.624084 
	C496.965912,638.823303 500.960175,642.660400 506.335602,646.124573 
	C511.403717,627.565002 511.296844,610.106873 503.871887,593.159546 
	C497.153351,577.824646 484.380829,567.984680 470.687347,559.523560 
	C456.113159,550.518250 441.045044,542.312256 426.193573,533.755493 
	C425.469238,533.338135 424.755981,532.894531 423.634979,533.539795 
	C423.373108,534.438782 422.956146,535.523438 422.745117,536.646729 
	C419.562408,553.588013 418.042694,570.650818 420.588257,587.784119 
	C423.388763,606.633667 430.159821,623.755066 444.672302,637.836731 
z"/>
<path fill="#000000" opacity="1.000000" stroke="none" 
	d="
M460.686340,691.424194 
	C434.083679,680.397034 413.093597,663.534912 399.891846,637.896667 
	C398.066559,634.351868 396.455505,630.678284 395.007843,626.962097 
	C393.099731,622.063904 394.043579,619.021912 397.720947,617.836731 
	C402.337250,616.348999 404.354492,619.238098 406.021179,622.888489 
	C408.301025,627.881714 410.492371,632.951355 413.235779,637.690613 
	C424.911530,657.860291 442.657684,670.831909 463.790894,679.658142 
	C466.259155,680.689026 468.993195,681.427673 469.970886,684.254822 
	C470.843597,686.778259 470.310242,689.207520 468.414764,691.199707 
	C466.086334,693.646851 463.557892,692.595825 460.686340,691.424194 
z"/>
<path fill="#000000" opacity="1.000000" stroke="none" 
	d="
M602.300415,359.950012 
	C599.073975,371.548370 591.540894,378.423004 580.863770,382.345795 
	C568.885376,386.746674 556.402405,388.660034 543.811951,389.962097 
	C522.371338,392.179443 500.919922,391.677704 479.560730,389.102051 
	C468.842834,387.809631 458.187500,385.715759 448.003845,381.925354 
	C434.840637,377.025970 427.474701,367.334229 426.265900,353.470825 
	C425.108490,340.197052 424.748627,326.794678 426.257080,313.560364 
	C428.382233,294.915192 438.583862,285.891968 458.693542,283.992981 
	C488.911987,281.139435 519.197449,281.702911 549.487671,282.515320 
	C559.315063,282.778900 569.160645,282.780334 578.720459,285.332306 
	C593.531433,289.286072 602.299927,298.986023 603.621887,314.267700 
	C604.926880,329.352142 605.058167,344.517975 602.300415,359.950012 
M558.959167,320.550751 
	C555.529663,317.919952 552.137939,315.237671 548.653992,312.681000 
	C547.021545,311.483032 545.122803,310.546600 543.065430,311.456543 
	C540.744446,312.482971 541.083191,314.753479 541.189026,316.690216 
	C541.779968,327.506378 543.658997,338.127441 546.314209,348.613892 
	C546.714233,350.193634 547.144348,352.065094 549.066223,352.438141 
	C551.305847,352.872894 552.177124,350.888306 553.237183,349.465820 
	C553.908875,348.564545 554.712036,347.614441 554.318115,346.321594 
	C549.741821,342.590179 545.776367,325.988586 548.232605,319.858215 
	C553.934631,321.720306 557.648010,326.433929 562.297852,329.723114 
	C563.874817,330.838593 566.010803,331.996246 565.833130,334.216339 
	C565.635803,336.682495 563.038818,336.000977 561.462891,336.635864 
	C558.182434,337.957489 555.077393,341.522827 556.954407,343.633514 
	C560.299316,347.394836 562.677673,351.701324 565.743408,355.558258 
	C567.007568,357.148682 568.582275,357.052216 570.148621,355.893372 
	C571.695251,354.749146 571.539734,353.462280 570.574463,352.002930 
	C569.291260,350.062744 568.115784,348.051666 566.857849,346.094330 
	C563.909607,341.506836 564.061035,341.072021 569.248230,339.530396 
	C574.683167,337.915131 575.505798,334.957367 571.294067,331.002472 
	C567.543640,327.480774 563.441101,324.334076 558.959167,320.550751 
M470.805115,311.063019 
	C463.927582,312.783020 460.484924,316.765198 460.251160,323.614563 
	C460.103607,327.936981 460.014130,332.286774 460.338043,336.591217 
	C460.564331,339.598206 461.016998,342.877533 464.764374,344.088959 
	C466.490417,341.964386 466.701355,339.644562 466.769745,337.339691 
	C466.893097,333.180908 466.809906,329.015411 466.962646,324.858246 
	C467.084198,321.550385 467.665955,317.978943 471.924805,318.213501 
	C475.903625,318.432617 475.968536,322.065704 476.055267,325.072449 
	C476.194366,329.896393 476.083466,334.727112 476.185242,339.552734 
	C476.229584,341.656555 476.127045,343.946747 478.665588,345.035034 
	C481.114197,344.038879 482.091583,342.017853 482.748077,339.703339 
	C484.370819,333.982574 484.150574,328.133636 483.606537,322.350677 
	C482.895966,314.797363 479.408478,311.721924 470.805115,311.063019 
M530.135254,367.859985 
	C531.706787,367.073395 533.258057,366.048615 532.487427,364.067841 
	C531.652466,361.921814 529.799438,362.819153 528.180237,363.140625 
	C519.273743,364.909088 510.357635,364.684784 501.397766,363.433533 
	C499.433746,363.159241 496.326202,360.944214 495.537018,364.550537 
	C494.828125,367.789978 498.209961,368.214661 500.416260,369.160278 
	C501.167572,369.482330 502.023315,369.569092 502.836914,369.736115 
	C511.843842,371.584930 520.699402,370.855225 530.135254,367.859985 
z"/>
</svg>